<svg width="411" height="115" viewBox="0 0 411 115" fill="none" xmlns="http://www.w3.org/2000/svg">
<path d="M43.0203 55.5766C43.9327 54.9539 45.412 54.9539 46.3243 55.5766L85.7764 82.4989C86.6884 83.1215 86.6886 84.1311 85.7764 84.7536L45.7766 112.05C44.8644 112.672 43.385 112.672 42.4726 112.05L3.02061 85.1274C2.10823 84.5047 2.10823 83.4953 3.02061 82.8727L43.0203 55.5766Z" stroke="black" stroke-width="4" stroke-linejoin="round"/>
<rect x="-3.304" width="52.0478" height="51.9551" transform="matrix(0.826001 -0.563669 0.826001 0.563669 4.09771 59.1378)" stroke="black" stroke-width="4" stroke-linejoin="round"/>
<rect x="-3.304" width="52.0478" height="51.9551" transform="matrix(0.826001 -0.563669 0.826001 0.563669 4.09771 36.2207)" stroke="black" stroke-width="4" stroke-linejoin="round"/>
<path d="M120.049 69V43.8H135.889V48.12H124.801V54.204H135.025V58.524H124.801V69H120.049ZM147.418 69.504C145.642 69.504 144.07 69.132 142.702 68.388C141.358 67.62 140.302 66.552 139.534 65.184C138.79 63.792 138.418 62.16 138.418 60.288V59.856C138.418 57.984 138.79 56.364 139.534 54.996C140.278 53.604 141.322 52.536 142.666 51.792C144.01 51.024 145.57 50.64 147.346 50.64C149.098 50.64 150.622 51.036 151.918 51.828C153.214 52.596 154.222 53.676 154.942 55.068C155.662 56.436 156.022 58.032 156.022 59.856V61.404H143.026C143.074 62.628 143.53 63.624 144.394 64.392C145.258 65.16 146.314 65.544 147.562 65.544C148.834 65.544 149.77 65.268 150.37 64.716C150.97 64.164 151.426 63.552 151.738 62.88L155.446 64.824C155.11 65.448 154.618 66.132 153.97 66.876C153.346 67.596 152.506 68.22 151.45 68.748C150.394 69.252 149.05 69.504 147.418 69.504ZM143.062 58.02H151.414C151.318 56.988 150.898 56.16 150.154 55.536C149.434 54.912 148.486 54.6 147.31 54.6C146.086 54.6 145.114 54.912 144.394 55.536C143.674 56.16 143.23 56.988 143.062 58.02ZM165.604 69.504C164.332 69.504 163.192 69.288 162.184 68.856C161.176 68.4 160.372 67.752 159.772 66.912C159.196 66.048 158.908 65.004 158.908 63.78C158.908 62.556 159.196 61.536 159.772 60.72C160.372 59.88 161.188 59.256 162.22 58.848C163.276 58.416 164.476 58.2 165.82 58.2H170.716V57.192C170.716 56.352 170.452 55.668 169.924 55.14C169.396 54.588 168.556 54.312 167.404 54.312C166.276 54.312 165.436 54.576 164.884 55.104C164.332 55.608 163.972 56.268 163.804 57.084L159.628 55.68C159.916 54.768 160.372 53.94 160.996 53.196C161.644 52.428 162.496 51.816 163.552 51.36C164.632 50.88 165.94 50.64 167.476 50.64C169.828 50.64 171.688 51.228 173.056 52.404C174.424 53.58 175.108 55.284 175.108 57.516V64.176C175.108 64.896 175.444 65.256 176.116 65.256H177.556V69H174.532C173.644 69 172.912 68.784 172.336 68.352C171.76 67.92 171.472 67.344 171.472 66.624V66.588H170.788C170.692 66.876 170.476 67.26 170.14 67.74C169.804 68.196 169.276 68.604 168.556 68.964C167.836 69.324 166.852 69.504 165.604 69.504ZM166.396 65.832C167.668 65.832 168.7 65.484 169.492 64.788C170.308 64.068 170.716 63.12 170.716 61.944V61.584H166.144C165.304 61.584 164.644 61.764 164.164 62.124C163.684 62.484 163.444 62.988 163.444 63.636C163.444 64.284 163.696 64.812 164.2 65.22C164.704 65.628 165.436 65.832 166.396 65.832ZM186.412 69C185.236 69 184.276 68.64 183.532 67.92C182.812 67.176 182.452 66.192 182.452 64.968V54.888H177.988V51.144H182.452V45.6H186.988V51.144H191.884V54.888H186.988V64.176C186.988 64.896 187.324 65.256 187.996 65.256H191.452V69H186.412ZM202.793 69.288C201.401 69.288 200.177 68.976 199.121 68.352C198.089 67.704 197.285 66.816 196.709 65.688C196.133 64.56 195.845 63.264 195.845 61.8V51.144H200.381V61.44C200.381 62.784 200.705 63.792 201.353 64.464C202.025 65.136 202.973 65.472 204.197 65.472C205.589 65.472 206.669 65.016 207.437 64.104C208.205 63.168 208.589 61.872 208.589 60.216V51.144H213.125V69H208.661V66.66H208.013C207.725 67.26 207.185 67.848 206.393 68.424C205.601 69 204.401 69.288 202.793 69.288ZM218.173 69V51.144H222.637V53.16H223.285C223.549 52.44 223.981 51.912 224.581 51.576C225.205 51.24 225.925 51.072 226.741 51.072H228.901V55.104H226.669C225.517 55.104 224.569 55.416 223.825 56.04C223.081 56.64 222.709 57.576 222.709 58.848V69H218.173ZM239.95 69.504C238.174 69.504 236.602 69.132 235.234 68.388C233.89 67.62 232.834 66.552 232.066 65.184C231.322 63.792 230.95 62.16 230.95 60.288V59.856C230.95 57.984 231.322 56.364 232.066 54.996C232.81 53.604 233.854 52.536 235.198 51.792C236.542 51.024 238.102 50.64 239.878 50.64C241.63 50.64 243.154 51.036 244.45 51.828C245.746 52.596 246.754 53.676 247.474 55.068C248.194 56.436 248.554 58.032 248.554 59.856V61.404H235.558C235.606 62.628 236.062 63.624 236.926 64.392C237.79 65.16 238.846 65.544 240.094 65.544C241.366 65.544 242.302 65.268 242.902 64.716C243.502 64.164 243.958 63.552 244.27 62.88L247.978 64.824C247.642 65.448 247.15 66.132 246.502 66.876C245.878 67.596 245.038 68.22 243.982 68.748C242.926 69.252 241.582 69.504 239.95 69.504ZM235.594 58.02H243.946C243.85 56.988 243.43 56.16 242.686 55.536C241.966 54.912 241.018 54.6 239.842 54.6C238.618 54.6 237.646 54.912 236.926 55.536C236.206 56.16 235.762 56.988 235.594 58.02ZM270.336 69.504C268.392 69.504 266.676 69.156 265.188 68.46C263.7 67.764 262.536 66.768 261.696 65.472C260.856 64.176 260.436 62.616 260.436 60.792V59.784H265.116V60.792C265.116 62.304 265.584 63.444 266.52 64.212C267.456 64.956 268.728 65.328 270.336 65.328C271.968 65.328 273.18 65.004 273.972 64.356C274.788 63.708 275.196 62.88 275.196 61.872C275.196 61.176 274.992 60.612 274.584 60.18C274.2 59.748 273.624 59.4 272.856 59.136C272.112 58.848 271.2 58.584 270.12 58.344L269.292 58.164C267.564 57.78 266.076 57.3 264.828 56.724C263.604 56.124 262.656 55.344 261.984 54.384C261.336 53.424 261.012 52.176 261.012 50.64C261.012 49.104 261.372 47.796 262.092 46.716C262.836 45.612 263.868 44.772 265.188 44.196C266.532 43.596 268.104 43.296 269.904 43.296C271.704 43.296 273.3 43.608 274.692 44.232C276.108 44.832 277.212 45.744 278.004 46.968C278.82 48.168 279.228 49.68 279.228 51.504V52.584H274.548V51.504C274.548 50.544 274.356 49.776 273.972 49.2C273.612 48.6 273.084 48.168 272.388 47.904C271.692 47.616 270.864 47.472 269.904 47.472C268.464 47.472 267.396 47.748 266.7 48.3C266.028 48.828 265.692 49.56 265.692 50.496C265.692 51.12 265.848 51.648 266.16 52.08C266.496 52.512 266.988 52.872 267.636 53.16C268.284 53.448 269.112 53.7 270.12 53.916L270.948 54.096C272.748 54.48 274.308 54.972 275.628 55.572C276.972 56.172 278.016 56.964 278.76 57.948C279.504 58.932 279.876 60.192 279.876 61.728C279.876 63.264 279.48 64.62 278.688 65.796C277.92 66.948 276.816 67.86 275.376 68.532C273.96 69.18 272.28 69.504 270.336 69.504ZM283.564 76.2V51.144H288.028V53.304H288.676C289.084 52.608 289.72 51.996 290.584 51.468C291.448 50.916 292.684 50.64 294.292 50.64C295.732 50.64 297.064 51 298.288 51.72C299.512 52.416 300.496 53.448 301.24 54.816C301.984 56.184 302.356 57.84 302.356 59.784V60.36C302.356 62.304 301.984 63.96 301.24 65.328C300.496 66.696 299.512 67.74 298.288 68.46C297.064 69.156 295.732 69.504 294.292 69.504C293.212 69.504 292.3 69.372 291.556 69.108C290.836 68.868 290.248 68.556 289.792 68.172C289.36 67.764 289.012 67.356 288.748 66.948H288.1V76.2H283.564ZM292.924 65.544C294.34 65.544 295.504 65.1 296.416 64.212C297.352 63.3 297.82 61.98 297.82 60.252V59.892C297.82 58.164 297.352 56.856 296.416 55.968C295.48 55.056 294.316 54.6 292.924 54.6C291.532 54.6 290.368 55.056 289.432 55.968C288.496 56.856 288.028 58.164 288.028 59.892V60.252C288.028 61.98 288.496 63.3 289.432 64.212C290.368 65.1 291.532 65.544 292.924 65.544ZM312.065 69.504C310.793 69.504 309.653 69.288 308.645 68.856C307.637 68.4 306.833 67.752 306.233 66.912C305.657 66.048 305.369 65.004 305.369 63.78C305.369 62.556 305.657 61.536 306.233 60.72C306.833 59.88 307.649 59.256 308.681 58.848C309.737 58.416 310.937 58.2 312.281 58.2H317.177V57.192C317.177 56.352 316.913 55.668 316.385 55.14C315.857 54.588 315.017 54.312 313.865 54.312C312.737 54.312 311.897 54.576 311.345 55.104C310.793 55.608 310.433 56.268 310.265 57.084L306.089 55.68C306.377 54.768 306.833 53.94 307.457 53.196C308.105 52.428 308.957 51.816 310.013 51.36C311.093 50.88 312.401 50.64 313.937 50.64C316.289 50.64 318.149 51.228 319.517 52.404C320.885 53.58 321.569 55.284 321.569 57.516V64.176C321.569 64.896 321.905 65.256 322.577 65.256H324.017V69H320.993C320.105 69 319.373 68.784 318.797 68.352C318.221 67.92 317.933 67.344 317.933 66.624V66.588H317.249C317.153 66.876 316.937 67.26 316.601 67.74C316.265 68.196 315.737 68.604 315.017 68.964C314.297 69.324 313.313 69.504 312.065 69.504ZM312.857 65.832C314.129 65.832 315.161 65.484 315.953 64.788C316.769 64.068 317.177 63.12 317.177 61.944V61.584H312.605C311.765 61.584 311.105 61.764 310.625 62.124C310.145 62.484 309.905 62.988 309.905 63.636C309.905 64.284 310.157 64.812 310.661 65.22C311.165 65.628 311.897 65.832 312.857 65.832ZM335.37 69.504C333.642 69.504 332.07 69.144 330.654 68.424C329.262 67.704 328.158 66.66 327.342 65.292C326.526 63.924 326.118 62.268 326.118 60.324V59.82C326.118 57.876 326.526 56.22 327.342 54.852C328.158 53.484 329.262 52.44 330.654 51.72C332.07 51 333.642 50.64 335.37 50.64C337.074 50.64 338.538 50.94 339.762 51.54C340.986 52.14 341.97 52.968 342.714 54.024C343.482 55.056 343.986 56.232 344.226 57.552L339.834 58.488C339.738 57.768 339.522 57.12 339.186 56.544C338.85 55.968 338.37 55.512 337.746 55.176C337.146 54.84 336.39 54.672 335.478 54.672C334.566 54.672 333.738 54.876 332.994 55.284C332.274 55.668 331.698 56.256 331.266 57.048C330.858 57.816 330.654 58.764 330.654 59.892V60.252C330.654 61.38 330.858 62.34 331.266 63.132C331.698 63.9 332.274 64.488 332.994 64.896C333.738 65.28 334.566 65.472 335.478 65.472C336.846 65.472 337.878 65.124 338.574 64.428C339.294 63.708 339.75 62.772 339.942 61.62L344.334 62.664C344.022 63.936 343.482 65.1 342.714 66.156C341.97 67.188 340.986 68.004 339.762 68.604C338.538 69.204 337.074 69.504 335.37 69.504ZM356.211 69.504C354.435 69.504 352.863 69.132 351.495 68.388C350.151 67.62 349.095 66.552 348.327 65.184C347.583 63.792 347.211 62.16 347.211 60.288V59.856C347.211 57.984 347.583 56.364 348.327 54.996C349.071 53.604 350.115 52.536 351.459 51.792C352.803 51.024 354.363 50.64 356.139 50.64C357.891 50.64 359.415 51.036 360.711 51.828C362.007 52.596 363.015 53.676 363.735 55.068C364.455 56.436 364.815 58.032 364.815 59.856V61.404H351.819C351.867 62.628 352.323 63.624 353.187 64.392C354.051 65.16 355.107 65.544 356.355 65.544C357.627 65.544 358.563 65.268 359.163 64.716C359.763 64.164 360.219 63.552 360.531 62.88L364.239 64.824C363.903 65.448 363.411 66.132 362.763 66.876C362.139 67.596 361.299 68.22 360.243 68.748C359.187 69.252 357.843 69.504 356.211 69.504ZM351.855 58.02H360.207C360.111 56.988 359.691 56.16 358.947 55.536C358.227 54.912 357.279 54.6 356.103 54.6C354.879 54.6 353.907 54.912 353.187 55.536C352.467 56.16 352.023 56.988 351.855 58.02Z" fill="black"/>
</svg>
