<svg width="411" height="114" viewBox="0 0 411 114" fill="none" xmlns="http://www.w3.org/2000/svg">
<path d="M43.0203 51.5766C43.9327 50.9539 45.412 50.9539 46.3243 51.5766L85.7764 78.4989C86.6884 79.1215 86.6886 80.1311 85.7764 80.7536L45.7766 108.05C44.8644 108.672 43.385 108.672 42.4726 108.05L3.02061 81.1274C2.10823 80.5047 2.10823 79.4953 3.02061 78.8727L43.0203 51.5766Z" stroke="black" stroke-width="4" stroke-linejoin="round"/>
<rect x="-3.304" width="52.0478" height="51.9551" transform="matrix(0.826001 -0.563669 0.826001 0.563669 4.09771 55.1378)" stroke="black" stroke-width="4" stroke-linejoin="round"/>
<rect x="-3.304" width="52.0478" height="51.9551" transform="matrix(0.826001 -0.563669 0.826001 0.563669 4.09771 32.2207)" stroke="black" stroke-width="4" stroke-linejoin="round"/>
<path d="M120.049 46V20.8H135.889V25.12H124.801V31.204H135.025V35.524H124.801V46H120.049ZM147.418 46.504C145.642 46.504 144.07 46.132 142.702 45.388C141.358 44.62 140.302 43.552 139.534 42.184C138.79 40.792 138.418 39.16 138.418 37.288V36.856C138.418 34.984 138.79 33.364 139.534 31.996C140.278 30.604 141.322 29.536 142.666 28.792C144.01 28.024 145.57 27.64 147.346 27.64C149.098 27.64 150.622 28.036 151.918 28.828C153.214 29.596 154.222 30.676 154.942 32.068C155.662 33.436 156.022 35.032 156.022 36.856V38.404H143.026C143.074 39.628 143.53 40.624 144.394 41.392C145.258 42.16 146.314 42.544 147.562 42.544C148.834 42.544 149.77 42.268 150.37 41.716C150.97 41.164 151.426 40.552 151.738 39.88L155.446 41.824C155.11 42.448 154.618 43.132 153.97 43.876C153.346 44.596 152.506 45.22 151.45 45.748C150.394 46.252 149.05 46.504 147.418 46.504ZM143.062 35.02H151.414C151.318 33.988 150.898 33.16 150.154 32.536C149.434 31.912 148.486 31.6 147.31 31.6C146.086 31.6 145.114 31.912 144.394 32.536C143.674 33.16 143.23 33.988 143.062 35.02ZM165.604 46.504C164.332 46.504 163.192 46.288 162.184 45.856C161.176 45.4 160.372 44.752 159.772 43.912C159.196 43.048 158.908 42.004 158.908 40.78C158.908 39.556 159.196 38.536 159.772 37.72C160.372 36.88 161.188 36.256 162.22 35.848C163.276 35.416 164.476 35.2 165.82 35.2H170.716V34.192C170.716 33.352 170.452 32.668 169.924 32.14C169.396 31.588 168.556 31.312 167.404 31.312C166.276 31.312 165.436 31.576 164.884 32.104C164.332 32.608 163.972 33.268 163.804 34.084L159.628 32.68C159.916 31.768 160.372 30.94 160.996 30.196C161.644 29.428 162.496 28.816 163.552 28.36C164.632 27.88 165.94 27.64 167.476 27.64C169.828 27.64 171.688 28.228 173.056 29.404C174.424 30.58 175.108 32.284 175.108 34.516V41.176C175.108 41.896 175.444 42.256 176.116 42.256H177.556V46H174.532C173.644 46 172.912 45.784 172.336 45.352C171.76 44.92 171.472 44.344 171.472 43.624V43.588H170.788C170.692 43.876 170.476 44.26 170.14 44.74C169.804 45.196 169.276 45.604 168.556 45.964C167.836 46.324 166.852 46.504 165.604 46.504ZM166.396 42.832C167.668 42.832 168.7 42.484 169.492 41.788C170.308 41.068 170.716 40.12 170.716 38.944V38.584H166.144C165.304 38.584 164.644 38.764 164.164 39.124C163.684 39.484 163.444 39.988 163.444 40.636C163.444 41.284 163.696 41.812 164.2 42.22C164.704 42.628 165.436 42.832 166.396 42.832ZM186.412 46C185.236 46 184.276 45.64 183.532 44.92C182.812 44.176 182.452 43.192 182.452 41.968V31.888H177.988V28.144H182.452V22.6H186.988V28.144H191.884V31.888H186.988V41.176C186.988 41.896 187.324 42.256 187.996 42.256H191.452V46H186.412ZM202.793 46.288C201.401 46.288 200.177 45.976 199.121 45.352C198.089 44.704 197.285 43.816 196.709 42.688C196.133 41.56 195.845 40.264 195.845 38.8V28.144H200.381V38.44C200.381 39.784 200.705 40.792 201.353 41.464C202.025 42.136 202.973 42.472 204.197 42.472C205.589 42.472 206.669 42.016 207.437 41.104C208.205 40.168 208.589 38.872 208.589 37.216V28.144H213.125V46H208.661V43.66H208.013C207.725 44.26 207.185 44.848 206.393 45.424C205.601 46 204.401 46.288 202.793 46.288ZM218.173 46V28.144H222.637V30.16H223.285C223.549 29.44 223.981 28.912 224.581 28.576C225.205 28.24 225.925 28.072 226.741 28.072H228.901V32.104H226.669C225.517 32.104 224.569 32.416 223.825 33.04C223.081 33.64 222.709 34.576 222.709 35.848V46H218.173ZM239.95 46.504C238.174 46.504 236.602 46.132 235.234 45.388C233.89 44.62 232.834 43.552 232.066 42.184C231.322 40.792 230.95 39.16 230.95 37.288V36.856C230.95 34.984 231.322 33.364 232.066 31.996C232.81 30.604 233.854 29.536 235.198 28.792C236.542 28.024 238.102 27.64 239.878 27.64C241.63 27.64 243.154 28.036 244.45 28.828C245.746 29.596 246.754 30.676 247.474 32.068C248.194 33.436 248.554 35.032 248.554 36.856V38.404H235.558C235.606 39.628 236.062 40.624 236.926 41.392C237.79 42.16 238.846 42.544 240.094 42.544C241.366 42.544 242.302 42.268 242.902 41.716C243.502 41.164 243.958 40.552 244.27 39.88L247.978 41.824C247.642 42.448 247.15 43.132 246.502 43.876C245.878 44.596 245.038 45.22 243.982 45.748C242.926 46.252 241.582 46.504 239.95 46.504ZM235.594 35.02H243.946C243.85 33.988 243.43 33.16 242.686 32.536C241.966 31.912 241.018 31.6 239.842 31.6C238.618 31.6 237.646 31.912 236.926 32.536C236.206 33.16 235.762 33.988 235.594 35.02ZM128.797 92.504C126.853 92.504 125.137 92.156 123.649 91.46C122.161 90.764 120.997 89.768 120.157 88.472C119.317 87.176 118.897 85.616 118.897 83.792V82.784H123.577V83.792C123.577 85.304 124.045 86.444 124.981 87.212C125.917 87.956 127.189 88.328 128.797 88.328C130.429 88.328 131.641 88.004 132.433 87.356C133.249 86.708 133.657 85.88 133.657 84.872C133.657 84.176 133.453 83.612 133.045 83.18C132.661 82.748 132.085 82.4 131.317 82.136C130.573 81.848 129.661 81.584 128.581 81.344L127.753 81.164C126.025 80.78 124.537 80.3 123.289 79.724C122.065 79.124 121.117 78.344 120.445 77.384C119.797 76.424 119.473 75.176 119.473 73.64C119.473 72.104 119.833 70.796 120.553 69.716C121.297 68.612 122.329 67.772 123.649 67.196C124.993 66.596 126.565 66.296 128.365 66.296C130.165 66.296 131.761 66.608 133.153 67.232C134.569 67.832 135.673 68.744 136.465 69.968C137.281 71.168 137.689 72.68 137.689 74.504V75.584H133.009V74.504C133.009 73.544 132.817 72.776 132.433 72.2C132.073 71.6 131.545 71.168 130.849 70.904C130.153 70.616 129.325 70.472 128.365 70.472C126.925 70.472 125.857 70.748 125.161 71.3C124.489 71.828 124.153 72.56 124.153 73.496C124.153 74.12 124.309 74.648 124.621 75.08C124.957 75.512 125.449 75.872 126.097 76.16C126.745 76.448 127.573 76.7 128.581 76.916L129.409 77.096C131.209 77.48 132.769 77.972 134.089 78.572C135.433 79.172 136.477 79.964 137.221 80.948C137.965 81.932 138.337 83.192 138.337 84.728C138.337 86.264 137.941 87.62 137.149 88.796C136.381 89.948 135.277 90.86 133.837 91.532C132.421 92.18 130.741 92.504 128.797 92.504ZM142.025 99.2V74.144H146.489V76.304H147.137C147.545 75.608 148.181 74.996 149.045 74.468C149.909 73.916 151.145 73.64 152.753 73.64C154.193 73.64 155.525 74 156.749 74.72C157.973 75.416 158.957 76.448 159.701 77.816C160.445 79.184 160.817 80.84 160.817 82.784V83.36C160.817 85.304 160.445 86.96 159.701 88.328C158.957 89.696 157.973 90.74 156.749 91.46C155.525 92.156 154.193 92.504 152.753 92.504C151.673 92.504 150.761 92.372 150.017 92.108C149.297 91.868 148.709 91.556 148.253 91.172C147.821 90.764 147.473 90.356 147.209 89.948H146.561V99.2H142.025ZM151.385 88.544C152.801 88.544 153.965 88.1 154.877 87.212C155.813 86.3 156.281 84.98 156.281 83.252V82.892C156.281 81.164 155.813 79.856 154.877 78.968C153.941 78.056 152.777 77.6 151.385 77.6C149.993 77.6 148.829 78.056 147.893 78.968C146.957 79.856 146.489 81.164 146.489 82.892V83.252C146.489 84.98 146.957 86.3 147.893 87.212C148.829 88.1 149.993 88.544 151.385 88.544ZM170.526 92.504C169.254 92.504 168.114 92.288 167.106 91.856C166.098 91.4 165.294 90.752 164.694 89.912C164.118 89.048 163.83 88.004 163.83 86.78C163.83 85.556 164.118 84.536 164.694 83.72C165.294 82.88 166.11 82.256 167.142 81.848C168.198 81.416 169.398 81.2 170.742 81.2H175.638V80.192C175.638 79.352 175.374 78.668 174.846 78.14C174.318 77.588 173.478 77.312 172.326 77.312C171.198 77.312 170.358 77.576 169.806 78.104C169.254 78.608 168.894 79.268 168.726 80.084L164.55 78.68C164.838 77.768 165.294 76.94 165.918 76.196C166.566 75.428 167.418 74.816 168.474 74.36C169.554 73.88 170.862 73.64 172.398 73.64C174.75 73.64 176.61 74.228 177.978 75.404C179.346 76.58 180.03 78.284 180.03 80.516V87.176C180.03 87.896 180.366 88.256 181.038 88.256H182.478V92H179.454C178.566 92 177.834 91.784 177.258 91.352C176.682 90.92 176.394 90.344 176.394 89.624V89.588H175.71C175.614 89.876 175.398 90.26 175.062 90.74C174.726 91.196 174.198 91.604 173.478 91.964C172.758 92.324 171.774 92.504 170.526 92.504ZM171.318 88.832C172.59 88.832 173.622 88.484 174.414 87.788C175.23 87.068 175.638 86.12 175.638 84.944V84.584H171.066C170.226 84.584 169.566 84.764 169.086 85.124C168.606 85.484 168.366 85.988 168.366 86.636C168.366 87.284 168.618 87.812 169.122 88.22C169.626 88.628 170.358 88.832 171.318 88.832ZM193.831 92.504C192.103 92.504 190.531 92.144 189.115 91.424C187.723 90.704 186.619 89.66 185.803 88.292C184.987 86.924 184.579 85.268 184.579 83.324V82.82C184.579 80.876 184.987 79.22 185.803 77.852C186.619 76.484 187.723 75.44 189.115 74.72C190.531 74 192.103 73.64 193.831 73.64C195.535 73.64 196.999 73.94 198.223 74.54C199.447 75.14 200.431 75.968 201.175 77.024C201.943 78.056 202.447 79.232 202.687 80.552L198.295 81.488C198.199 80.768 197.983 80.12 197.647 79.544C197.311 78.968 196.831 78.512 196.207 78.176C195.607 77.84 194.851 77.672 193.939 77.672C193.027 77.672 192.199 77.876 191.455 78.284C190.735 78.668 190.159 79.256 189.727 80.048C189.319 80.816 189.115 81.764 189.115 82.892V83.252C189.115 84.38 189.319 85.34 189.727 86.132C190.159 86.9 190.735 87.488 191.455 87.896C192.199 88.28 193.027 88.472 193.939 88.472C195.307 88.472 196.339 88.124 197.035 87.428C197.755 86.708 198.211 85.772 198.403 84.62L202.795 85.664C202.483 86.936 201.943 88.1 201.175 89.156C200.431 90.188 199.447 91.004 198.223 91.604C196.999 92.204 195.535 92.504 193.831 92.504ZM214.672 92.504C212.896 92.504 211.324 92.132 209.956 91.388C208.612 90.62 207.556 89.552 206.788 88.184C206.044 86.792 205.672 85.16 205.672 83.288V82.856C205.672 80.984 206.044 79.364 206.788 77.996C207.532 76.604 208.576 75.536 209.92 74.792C211.264 74.024 212.824 73.64 214.6 73.64C216.352 73.64 217.876 74.036 219.172 74.828C220.468 75.596 221.476 76.676 222.196 78.068C222.916 79.436 223.276 81.032 223.276 82.856V84.404H210.28C210.328 85.628 210.784 86.624 211.648 87.392C212.512 88.16 213.568 88.544 214.816 88.544C216.088 88.544 217.024 88.268 217.624 87.716C218.224 87.164 218.68 86.552 218.992 85.88L222.7 87.824C222.364 88.448 221.872 89.132 221.224 89.876C220.6 90.596 219.76 91.22 218.704 91.748C217.648 92.252 216.304 92.504 214.672 92.504ZM210.316 81.02H218.668C218.572 79.988 218.152 79.16 217.408 78.536C216.688 77.912 215.74 77.6 214.564 77.6C213.34 77.6 212.368 77.912 211.648 78.536C210.928 79.16 210.484 79.988 210.316 81.02Z" fill="black"/>
</svg>
